STARTFONT 2.3
FONT -FontForge-Zen Tokyo Zoo-Book-R-Normal--8-80-72-72-P-37-ISO10646-1
SIZE 8 72 72  4
FONTBOUNDINGBOX 11 14 -1 -3
COMMENT "Generated by fontforge, http://fontforge.sourceforge.net"
COMMENT "Copyright 2021 The Zen Tokyo Zoo Project Authors (https://github.com/googlefonts/zen-tokyo-zoo)"
STARTPROPERTIES 40
FOUNDRY "FontForge"
FAMILY_NAME "Zen Tokyo Zoo"
WEIGHT_NAME "Book"
SLANT "R"
SETWIDTH_NAME "Normal"
ADD_STYLE_NAME ""
PIXEL_SIZE 8
POINT_SIZE 80
RESOLUTION_X 72
RESOLUTION_Y 72
SPACING "P"
AVERAGE_WIDTH 37
CHARSET_REGISTRY "ISO10646"
CHARSET_ENCODING "1"
FONTNAME_REGISTRY ""
CHARSET_COLLECTIONS "ISO10646-1"
BITS_PER_PIXEL 4
FONT_NAME "ZenTokyoZoo-Regular"
FACE_NAME "Zen Tokyo Zoo Regular"
COPYRIGHT "Copyright 2021 The Zen Tokyo Zoo Project Authors (https://github.com/googlefonts/zen-tokyo-zoo)"
FONT_VERSION "1.002; ttfautohint (v1.8.3)"
FONT_ASCENT 6
FONT_DESCENT 2
UNDERLINE_POSITION -1
UNDERLINE_THICKNESS 1
X_HEIGHT 3
CAP_HEIGHT 7
RAW_ASCENT 800
RAW_DESCENT 200
NORM_SPACE 2
RELATIVE_WEIGHT 40
RELATIVE_SETWIDTH 50
SUPERSCRIPT_X 0
SUPERSCRIPT_Y 2
SUPERSCRIPT_SIZE 4
SUBSCRIPT_X 0
SUBSCRIPT_Y 0
SUBSCRIPT_SIZE 4
AVG_LOWERCASE_WIDTH 32
AVG_UPPERCASE_WIDTH 59
ENDPROPERTIES
CHARS 338
STARTCHAR CR
ENCODING 13
SWIDTH 600 0
DWIDTH 5 0
BBX 1 1 0 0
BITMAP
00
ENDCHAR
STARTCHAR space
ENCODING 32
SWIDTH 280 0
DWIDTH 2 0
BBX 1 1 0 0
BITMAP
00
ENDCHAR
STARTCHAR exclam
ENCODING 33
SWIDTH 196 0
DWIDTH 2 0
BBX 2 4 0 0
BITMAP
53
53
42
42
ENDCHAR
STARTCHAR quotedbl
ENCODING 34
SWIDTH 302 0
DWIDTH 2 0
BBX 3 2 0 2
BITMAP
7430
2110
ENDCHAR
STARTCHAR numbersign
ENCODING 35
SWIDTH 513 0
DWIDTH 4 0
BBX 4 4 0 0
BITMAP
1754
1653
3472
2370
ENDCHAR
STARTCHAR dollar
ENCODING 36
SWIDTH 379 0
DWIDTH 3 0
BBX 3 5 0 0
BITMAP
2420
6430
3830
3460
2420
ENDCHAR
STARTCHAR percent
ENCODING 37
SWIDTH 493 0
DWIDTH 4 0
BBX 4 4 0 0
BITMAP
6653
4660
0653
3576
ENDCHAR
STARTCHAR ampersand
ENCODING 38
SWIDTH 487 0
DWIDTH 4 0
BBX 4 4 0 0
BITMAP
0860
0850
4664
4872
ENDCHAR
STARTCHAR quotesingle
ENCODING 39
SWIDTH 146 0
DWIDTH 1 0
BBX 1 2 0 2
BITMAP
70
20
ENDCHAR
STARTCHAR parenleft
ENCODING 40
SWIDTH 210 0
DWIDTH 2 0
BBX 2 5 0 0
BITMAP
22
53
71
61
44
ENDCHAR
STARTCHAR parenright
ENCODING 41
SWIDTH 210 0
DWIDTH 2 0
BBX 2 5 0 0
BITMAP
30
43
44
43
62
ENDCHAR
STARTCHAR asterisk
ENCODING 42
SWIDTH 358 0
DWIDTH 3 0
BBX 3 3 0 1
BITMAP
1410
3320
0200
ENDCHAR
STARTCHAR plus
ENCODING 43
SWIDTH 394 0
DWIDTH 3 0
BBX 3 3 0 1
BITMAP
0600
3730
0700
ENDCHAR
STARTCHAR comma
ENCODING 44
SWIDTH 216 0
DWIDTH 2 0
BBX 2 1 0 0
BITMAP
43
ENDCHAR
STARTCHAR hyphen
ENCODING 45
SWIDTH 326 0
DWIDTH 3 0
BBX 3 2 0 1
BITMAP
3510
3510
ENDCHAR
STARTCHAR period
ENCODING 46
SWIDTH 176 0
DWIDTH 1 0
BBX 2 1 0 0
BITMAP
51
ENDCHAR
STARTCHAR slash
ENCODING 47
SWIDTH 298 0
DWIDTH 2 0
BBX 3 4 0 0
BITMAP
0710
1600
4400
5300
ENDCHAR
STARTCHAR zero
ENCODING 48
SWIDTH 306 0
DWIDTH 2 0
BBX 3 4 0 0
BITMAP
6910
7430
7430
6910
ENDCHAR
STARTCHAR one
ENCODING 49
SWIDTH 306 0
DWIDTH 2 0
BBX 3 4 0 0
BITMAP
5610
0610
0610
0610
ENDCHAR
STARTCHAR two
ENCODING 50
SWIDTH 299 0
DWIDTH 2 0
BBX 3 4 0 0
BITMAP
4A10
1710
4400
7910
ENDCHAR
STARTCHAR three
ENCODING 51
SWIDTH 324 0
DWIDTH 3 0
BBX 3 4 0 0
BITMAP
4920
0320
1340
5820
ENDCHAR
STARTCHAR four
ENCODING 52
SWIDTH 339 0
DWIDTH 3 0
BBX 3 4 0 0
BITMAP
1700
4400
4530
3540
ENDCHAR
STARTCHAR five
ENCODING 53
SWIDTH 363 0
DWIDTH 3 0
BBX 3 4 0 0
BITMAP
3830
4510
1440
3830
ENDCHAR
STARTCHAR six
ENCODING 54
SWIDTH 306 0
DWIDTH 2 0
BBX 3 4 0 0
BITMAP
6810
7400
7320
6810
ENDCHAR
STARTCHAR seven
ENCODING 55
SWIDTH 298 0
DWIDTH 2 0
BBX 3 4 0 0
BITMAP
6910
0400
0700
3400
ENDCHAR
STARTCHAR eight
ENCODING 56
SWIDTH 306 0
DWIDTH 2 0
BBX 3 4 0 0
BITMAP
6910
5620
5620
6910
ENDCHAR
STARTCHAR nine
ENCODING 57
SWIDTH 306 0
DWIDTH 2 0
BBX 3 4 0 0
BITMAP
6910
4530
4530
6910
ENDCHAR
STARTCHAR colon
ENCODING 58
SWIDTH 176 0
DWIDTH 1 0
BBX 2 2 0 0
BITMAP
51
51
ENDCHAR
STARTCHAR semicolon
ENCODING 59
SWIDTH 217 0
DWIDTH 2 0
BBX 2 3 0 -1
BITMAP
33
11
43
ENDCHAR
STARTCHAR less
ENCODING 60
SWIDTH 450 0
DWIDTH 4 0
BBX 4 4 0 0
BITMAP
0001
0271
3740
0262
ENDCHAR
STARTCHAR equal
ENCODING 61
SWIDTH 344 0
DWIDTH 3 0
BBX 3 3 0 0
BITMAP
3420
3420
3420
ENDCHAR
STARTCHAR greater
ENCODING 62
SWIDTH 450 0
DWIDTH 4 0
BBX 4 4 0 0
BITMAP
2000
4620
1651
5400
ENDCHAR
STARTCHAR question
ENCODING 63
SWIDTH 346 0
DWIDTH 3 0
BBX 3 4 0 0
BITMAP
3A30
1540
0800
0400
ENDCHAR
STARTCHAR at
ENCODING 64
SWIDTH 490 0
DWIDTH 4 0
BBX 4 4 0 0
BITMAP
2772
6346
6442
2640
ENDCHAR
STARTCHAR A
ENCODING 65
SWIDTH 798 0
DWIDTH 6 0
BBX 7 8 0 0
BITMAP
00561000
00754000
03665000
04748000
07436300
26647400
47445700
65004710
ENDCHAR
STARTCHAR B
ENCODING 66
SWIDTH 784 0
DWIDTH 6 0
BBX 6 8 0 0
BITMAP
568891
564456
560056
564445
564456
560048
574458
578892
ENDCHAR
STARTCHAR C
ENCODING 67
SWIDTH 776 0
DWIDTH 6 0
BBX 6 8 0 0
BITMAP
028883
174455
562011
650000
650000
562011
174455
028883
ENDCHAR
STARTCHAR D
ENCODING 68
SWIDTH 806 0
DWIDTH 6 0
BBX 7 8 0 0
BITMAP
56896000
56446500
56005800
56003720
56003720
56005800
56446500
56896000
ENDCHAR
STARTCHAR E
ENCODING 69
SWIDTH 677 0
DWIDTH 5 0
BBX 6 8 0 0
BITMAP
568881
564441
560000
564430
568860
560000
564441
568881
ENDCHAR
STARTCHAR F
ENCODING 70
SWIDTH 677 0
DWIDTH 5 0
BBX 6 8 0 0
BITMAP
569992
564441
560000
564430
569960
560000
560000
560000
ENDCHAR
STARTCHAR G
ENCODING 71
SWIDTH 872 0
DWIDTH 7 0
BBX 7 8 0 0
BITMAP
02888300
17444720
56200300
65024430
65024430
56224540
17444730
02889400
ENDCHAR
STARTCHAR H
ENCODING 72
SWIDTH 781 0
DWIDTH 6 0
BBX 6 8 0 0
BITMAP
560047
560047
560047
564457
569967
560047
560047
560047
ENDCHAR
STARTCHAR I
ENCODING 73
SWIDTH 262 0
DWIDTH 2 0
BBX 2 8 0 0
BITMAP
56
56
56
56
56
56
56
56
ENDCHAR
STARTCHAR J
ENCODING 74
SWIDTH 674 0
DWIDTH 5 0
BBX 5 8 0 0
BITMAP
000470
000470
000470
000470
210370
740370
554470
178820
ENDCHAR
STARTCHAR K
ENCODING 75
SWIDTH 739 0
DWIDTH 6 0
BBX 6 8 0 0
BITMAP
560274
560670
562630
566400
587500
564730
560670
560275
ENDCHAR
STARTCHAR L
ENCODING 76
SWIDTH 604 0
DWIDTH 5 0
BBX 5 8 0 0
BITMAP
560000
560000
560000
560000
560000
560000
564430
568860
ENDCHAR
STARTCHAR M
ENCODING 77
SWIDTH 909 0
DWIDTH 7 0
BBX 7 8 0 0
BITMAP
56100570
56503570
56636570
56676570
56453470
56040470
56010470
56000470
ENDCHAR
STARTCHAR N
ENCODING 78
SWIDTH 796 0
DWIDTH 6 0
BBX 6 8 0 0
BITMAP
561047
565047
567247
567647
564767
560667
560367
560057
ENDCHAR
STARTCHAR O
ENCODING 79
SWIDTH 894 0
DWIDTH 7 0
BBX 7 8 0 0
BITMAP
02888300
17444620
56201660
65000470
65000470
56201560
17444620
02888300
ENDCHAR
STARTCHAR P
ENCODING 80
SWIDTH 743 0
DWIDTH 6 0
BBX 6 8 0 0
BITMAP
569991
564456
560056
564444
564450
560000
560000
560000
ENDCHAR
STARTCHAR Q
ENCODING 81
SWIDTH 911 0
DWIDTH 7 0
BBX 7 8 0 0
BITMAP
02888300
17444620
56201560
65000470
65001570
56205740
17445770
02888450
ENDCHAR
STARTCHAR R
ENCODING 82
SWIDTH 745 0
DWIDTH 6 0
BBX 6 8 0 0
BITMAP
569991
564456
560056
564444
564550
560660
560462
560084
ENDCHAR
STARTCHAR S
ENCODING 83
SWIDTH 660 0
DWIDTH 5 0
BBX 5 8 0 0
BITMAP
178820
564560
660110
389500
036960
110470
554470
178820
ENDCHAR
STARTCHAR T
ENCODING 84
SWIDTH 641 0
DWIDTH 5 0
BBX 5 8 0 0
BITMAP
899990
445440
016300
016300
016300
016300
016300
016300
ENDCHAR
STARTCHAR U
ENCODING 85
SWIDTH 702 0
DWIDTH 6 0
BBX 6 8 0 0
BITMAP
560163
560163
560163
560163
560163
570263
364480
068830
ENDCHAR
STARTCHAR V
ENCODING 86
SWIDTH 758 0
DWIDTH 6 0
BBX 6 8 0 0
BITMAP
650056
470074
263371
084560
056440
047310
016400
007400
ENDCHAR
STARTCHAR W
ENCODING 87
SWIDTH 972 0
DWIDTH 8 0
BBX 8 8 0 0
BITMAP
75065074
47074163
47475470
26575460
07555540
07527420
04705600
04704800
ENDCHAR
STARTCHAR X
ENCODING 88
SWIDTH 712 0
DWIDTH 6 0
BBX 6 8 0 0
BITMAP
471472
175660
057530
017600
025700
056740
274670
570373
ENDCHAR
STARTCHAR Y
ENCODING 89
SWIDTH 769 0
DWIDTH 6 0
BBX 6 8 0 0
BITMAP
570067
274363
057560
027530
003400
004700
004700
004700
ENDCHAR
STARTCHAR Z
ENCODING 90
SWIDTH 708 0
DWIDTH 6 0
BBX 6 8 0 0
BITMAP
388774
144670
002740
006700
027400
067000
265440
677880
ENDCHAR
STARTCHAR bracketleft
ENCODING 91
SWIDTH 320 0
DWIDTH 3 0
BBX 3 5 0 -1
BITMAP
3410
5300
5300
5510
3410
ENDCHAR
STARTCHAR backslash
ENCODING 92
SWIDTH 298 0
DWIDTH 2 0
BBX 3 4 0 0
BITMAP
5300
4400
1600
0710
ENDCHAR
STARTCHAR bracketright
ENCODING 93
SWIDTH 320 0
DWIDTH 3 0
BBX 3 5 0 -1
BITMAP
2410
0520
0520
2520
2410
ENDCHAR
STARTCHAR asciicircum
ENCODING 94
SWIDTH 309 0
DWIDTH 2 0
BBX 2 2 0 2
BITMAP
02
46
ENDCHAR
STARTCHAR underscore
ENCODING 95
SWIDTH 472 0
DWIDTH 4 0
BBX 4 2 0 0
BITMAP
2442
2442
ENDCHAR
STARTCHAR grave
ENCODING 96
SWIDTH 195 0
DWIDTH 2 0
BBX 1 1 0 5
BITMAP
40
ENDCHAR
STARTCHAR a
ENCODING 97
SWIDTH 414 0
DWIDTH 3 0
BBX 4 4 0 0
BITMAP
0730
3740
4670
7581
ENDCHAR
STARTCHAR b
ENCODING 98
SWIDTH 423 0
DWIDTH 3 0
BBX 4 4 0 0
BITMAP
6980
6580
6551
6990
ENDCHAR
STARTCHAR c
ENCODING 99
SWIDTH 446 0
DWIDTH 4 0
BBX 4 4 0 0
BITMAP
2871
6200
6200
2871
ENDCHAR
STARTCHAR d
ENCODING 100
SWIDTH 450 0
DWIDTH 4 0
BBX 4 4 0 0
BITMAP
6970
6143
6143
6970
ENDCHAR
STARTCHAR e
ENCODING 101
SWIDTH 363 0
DWIDTH 3 0
BBX 3 4 0 0
BITMAP
6960
6520
6520
6960
ENDCHAR
STARTCHAR f
ENCODING 102
SWIDTH 365 0
DWIDTH 3 0
BBX 3 4 0 0
BITMAP
6970
6520
6520
6100
ENDCHAR
STARTCHAR g
ENCODING 103
SWIDTH 483 0
DWIDTH 4 0
BBX 4 4 0 0
BITMAP
2871
6243
6254
2882
ENDCHAR
STARTCHAR h
ENCODING 104
SWIDTH 428 0
DWIDTH 3 0
BBX 4 4 0 0
BITMAP
6162
6672
6672
6162
ENDCHAR
STARTCHAR i
ENCODING 105
SWIDTH 176 0
DWIDTH 1 0
BBX 2 4 0 0
BITMAP
61
61
61
61
ENDCHAR
STARTCHAR j
ENCODING 106
SWIDTH 390 0
DWIDTH 3 0
BBX 3 4 0 0
BITMAP
0070
0070
2070
4840
ENDCHAR
STARTCHAR k
ENCODING 107
SWIDTH 381 0
DWIDTH 3 0
BBX 3 4 0 0
BITMAP
6550
6720
6810
6560
ENDCHAR
STARTCHAR l
ENCODING 108
SWIDTH 330 0
DWIDTH 3 0
BBX 3 4 0 0
BITMAP
6100
6100
6100
6940
ENDCHAR
STARTCHAR m
ENCODING 109
SWIDTH 501 0
DWIDTH 4 0
BBX 4 4 0 0
BITMAP
6556
6896
6546
6116
ENDCHAR
STARTCHAR n
ENCODING 110
SWIDTH 444 0
DWIDTH 4 0
BBX 4 4 0 0
BITMAP
6544
6844
6574
6274
ENDCHAR
STARTCHAR o
ENCODING 111
SWIDTH 494 0
DWIDTH 4 0
BBX 4 4 0 0
BITMAP
2882
6225
6225
2882
ENDCHAR
STARTCHAR p
ENCODING 112
SWIDTH 412 0
DWIDTH 3 0
BBX 3 4 0 0
BITMAP
6980
6570
6540
6100
ENDCHAR
STARTCHAR q
ENCODING 113
SWIDTH 494 0
DWIDTH 4 0
BBX 4 4 0 0
BITMAP
2881
6225
6246
2894
ENDCHAR
STARTCHAR r
ENCODING 114
SWIDTH 412 0
DWIDTH 3 0
BBX 3 4 0 0
BITMAP
6980
6570
6760
6270
ENDCHAR
STARTCHAR s
ENCODING 115
SWIDTH 379 0
DWIDTH 3 0
BBX 3 4 0 0
BITMAP
4840
5630
2650
4850
ENDCHAR
STARTCHAR t
ENCODING 116
SWIDTH 349 0
DWIDTH 3 0
BBX 3 4 0 0
BITMAP
8C60
0700
0700
0700
ENDCHAR
STARTCHAR u
ENCODING 117
SWIDTH 400 0
DWIDTH 3 0
BBX 3 4 0 0
BITMAP
6170
6170
6270
3850
ENDCHAR
STARTCHAR v
ENCODING 118
SWIDTH 394 0
DWIDTH 3 0
BBX 3 4 0 0
BITMAP
7180
4650
3740
0820
ENDCHAR
STARTCHAR w
ENCODING 119
SWIDTH 521 0
DWIDTH 4 0
BBX 4 4 0 0
BITMAP
7457
5787
4894
3765
ENDCHAR
STARTCHAR x
ENCODING 120
SWIDTH 369 0
DWIDTH 3 0
BBX 3 4 0 0
BITMAP
5750
2820
3820
6650
ENDCHAR
STARTCHAR y
ENCODING 121
SWIDTH 422 0
DWIDTH 3 0
BBX 4 4 0 0
BITMAP
5471
2840
0510
0610
ENDCHAR
STARTCHAR z
ENCODING 122
SWIDTH 409 0
DWIDTH 3 0
BBX 3 4 0 0
BITMAP
69B0
0550
3700
8A80
ENDCHAR
STARTCHAR braceleft
ENCODING 123
SWIDTH 443 0
DWIDTH 4 0
BBX 4 5 0 -1
BITMAP
0341
0520
2620
0551
0341
ENDCHAR
STARTCHAR bar
ENCODING 124
SWIDTH 196 0
DWIDTH 2 0
BBX 2 5 0 0
BITMAP
21
53
53
53
53
ENDCHAR
STARTCHAR braceright
ENCODING 125
SWIDTH 506 0
DWIDTH 4 0
BBX 3 5 1 -1
BITMAP
4400
2600
2630
4600
4400
ENDCHAR
STARTCHAR asciitilde
ENCODING 126
SWIDTH 450 0
DWIDTH 4 0
BBX 3 2 0 1
BITMAP
1140
1140
ENDCHAR
STARTCHAR uni00A0
ENCODING 160
SWIDTH 280 0
DWIDTH 2 0
BBX 1 1 0 0
BITMAP
00
ENDCHAR
STARTCHAR exclamdown
ENCODING 161
SWIDTH 196 0
DWIDTH 2 0
BBX 2 4 0 -1
BITMAP
42
42
53
53
ENDCHAR
STARTCHAR cent
ENCODING 162
SWIDTH 305 0
DWIDTH 2 0
BBX 3 5 0 -1
BITMAP
1400
3510
7000
4500
1400
ENDCHAR
STARTCHAR sterling
ENCODING 163
SWIDTH 408 0
DWIDTH 3 0
BBX 3 4 0 0
BITMAP
5930
5510
1100
9990
ENDCHAR
STARTCHAR currency
ENCODING 164
SWIDTH 401 0
DWIDTH 3 0
BBX 3 5 0 0
BITMAP
1010
3640
2340
3640
1010
ENDCHAR
STARTCHAR yen
ENCODING 165
SWIDTH 423 0
DWIDTH 3 0
BBX 4 4 0 0
BITMAP
5471
2850
2540
2640
ENDCHAR
STARTCHAR brokenbar
ENCODING 166
SWIDTH 196 0
DWIDTH 2 0
BBX 2 4 0 0
BITMAP
53
42
42
53
ENDCHAR
STARTCHAR section
ENCODING 167
SWIDTH 322 0
DWIDTH 3 0
BBX 3 4 0 0
BITMAP
6910
5620
5530
4B20
ENDCHAR
STARTCHAR dieresis
ENCODING 168
SWIDTH 287 0
DWIDTH 2 0
BBX 2 1 0 5
BITMAP
66
ENDCHAR
STARTCHAR copyright
ENCODING 169
SWIDTH 493 0
DWIDTH 4 0
BBX 4 5 0 0
BITMAP
0440
4334
4404
4334
0440
ENDCHAR
STARTCHAR ordfeminine
ENCODING 170
SWIDTH 331 0
DWIDTH 3 0
BBX 3 1 0 2
BITMAP
4610
ENDCHAR
STARTCHAR guillemotleft
ENCODING 171
SWIDTH 298 0
DWIDTH 2 0
BBX 2 2 0 1
BITMAP
23
45
ENDCHAR
STARTCHAR logicalnot
ENCODING 172
SWIDTH 420 0
DWIDTH 3 0
BBX 3 3 0 0
BITMAP
3440
3440
0050
ENDCHAR
STARTCHAR uni00AD
ENCODING 173
SWIDTH 326 0
DWIDTH 3 0
BBX 3 2 0 1
BITMAP
3510
3510
ENDCHAR
STARTCHAR registered
ENCODING 174
SWIDTH 493 0
DWIDTH 4 0
BBX 4 5 0 0
BITMAP
0440
4004
4664
4344
0440
ENDCHAR
STARTCHAR macron
ENCODING 175
SWIDTH 331 0
DWIDTH 3 0
BBX 3 1 0 4
BITMAP
3510
ENDCHAR
STARTCHAR degree
ENCODING 176
SWIDTH 298 0
DWIDTH 2 0
BBX 2 3 0 2
BITMAP
24
45
24
ENDCHAR
STARTCHAR plusminus
ENCODING 177
SWIDTH 418 0
DWIDTH 3 0
BBX 3 4 0 0
BITMAP
0710
2730
0410
6880
ENDCHAR
STARTCHAR uni00B2
ENCODING 178
SWIDTH 233 0
DWIDTH 2 0
BBX 2 2 0 2
BITMAP
11
53
ENDCHAR
STARTCHAR uni00B3
ENCODING 179
SWIDTH 228 0
DWIDTH 2 0
BBX 2 2 0 2
BITMAP
01
32
ENDCHAR
STARTCHAR acute
ENCODING 180
SWIDTH 195 0
DWIDTH 2 0
BBX 1 1 0 5
BITMAP
40
ENDCHAR
STARTCHAR uni00B5
ENCODING 181
SWIDTH 506 0
DWIDTH 4 0
BBX 4 5 0 -1
BITMAP
5370
5370
5370
5865
5300
ENDCHAR
STARTCHAR paragraph
ENCODING 182
SWIDTH 435 0
DWIDTH 3 0
BBX 4 4 0 0
BITMAP
6991
6441
3661
0461
ENDCHAR
STARTCHAR periodcentered
ENCODING 183
SWIDTH 176 0
DWIDTH 1 0
BBX 2 1 0 1
BITMAP
51
ENDCHAR
STARTCHAR cedilla
ENCODING 184
SWIDTH 261 0
DWIDTH 2 0
BBX 2 2 0 -2
BITMAP
34
23
ENDCHAR
STARTCHAR uni00B9
ENCODING 185
SWIDTH 218 0
DWIDTH 2 0
BBX 2 2 0 2
BITMAP
10
33
ENDCHAR
STARTCHAR ordmasculine
ENCODING 186
SWIDTH 335 0
DWIDTH 3 0
BBX 3 2 0 2
BITMAP
1200
5920
ENDCHAR
STARTCHAR guillemotright
ENCODING 187
SWIDTH 298 0
DWIDTH 2 0
BBX 2 2 0 1
BITMAP
22
45
ENDCHAR
STARTCHAR onequarter
ENCODING 188
SWIDTH 429 0
DWIDTH 3 0
BBX 4 4 0 0
BITMAP
4250
2530
0550
2442
ENDCHAR
STARTCHAR onehalf
ENCODING 189
SWIDTH 437 0
DWIDTH 4 0
BBX 4 4 0 0
BITMAP
4350
1541
0542
2251
ENDCHAR
STARTCHAR threequarters
ENCODING 190
SWIDTH 409 0
DWIDTH 3 0
BBX 3 4 0 0
BITMAP
3130
4430
0650
3360
ENDCHAR
STARTCHAR questiondown
ENCODING 191
SWIDTH 346 0
DWIDTH 3 0
BBX 3 5 0 -1
BITMAP
0400
0600
4500
4520
2510
ENDCHAR
STARTCHAR Agrave
ENCODING 192
SWIDTH 798 0
DWIDTH 6 0
BBX 7 10 0 0
BITMAP
01710000
00440000
00561000
00754000
03665000
04748000
07436300
26647400
47445700
65004710
ENDCHAR
STARTCHAR Aacute
ENCODING 193
SWIDTH 798 0
DWIDTH 6 0
BBX 7 10 0 0
BITMAP
00044000
00071000
00561000
00754000
03665000
04748000
07436300
26647400
47445700
65004710
ENDCHAR
STARTCHAR Acircumflex
ENCODING 194
SWIDTH 798 0
DWIDTH 6 0
BBX 7 10 0 0
BITMAP
00660000
03644000
00561000
00754000
03665000
04748000
07436300
26647400
47445700
65004710
ENDCHAR
STARTCHAR Atilde
ENCODING 195
SWIDTH 798 0
DWIDTH 6 0
BBX 7 10 0 0
BITMAP
01512000
02043000
00561000
00754000
03665000
04748000
07436300
26647400
47445700
65004710
ENDCHAR
STARTCHAR Adieresis
ENCODING 196
SWIDTH 798 0
DWIDTH 6 0
BBX 7 11 0 0
BITMAP
03425000
03333000
03425000
00561000
00754000
03665000
04748000
07436300
26647400
47445700
65004710
ENDCHAR
STARTCHAR Aring
ENCODING 197
SWIDTH 798 0
DWIDTH 6 0
BBX 7 11 0 0
BITMAP
00340000
00440000
00340000
00561000
00754000
03665000
04748000
07436300
26647400
47445700
65004710
ENDCHAR
STARTCHAR AE
ENCODING 198
SWIDTH 1078 0
DWIDTH 9 0
BBX 9 8 0 0
BITMAP
0005788830
0035734420
0057700000
0176744400
0473678800
0763740000
3653754420
5733768830
ENDCHAR
STARTCHAR Ccedilla
ENCODING 199
SWIDTH 776 0
DWIDTH 6 0
BBX 6 11 0 -3
BITMAP
028883
174455
562011
650000
650000
562011
174455
028883
000100
003500
002400
ENDCHAR
STARTCHAR Egrave
ENCODING 200
SWIDTH 677 0
DWIDTH 5 0
BBX 6 10 0 0
BITMAP
005400
002700
568881
564441
560000
564430
568860
560000
564441
568881
ENDCHAR
STARTCHAR Eacute
ENCODING 201
SWIDTH 677 0
DWIDTH 5 0
BBX 6 10 0 0
BITMAP
002600
005300
568881
564441
560000
564430
568860
560000
564441
568881
ENDCHAR
STARTCHAR Ecircumflex
ENCODING 202
SWIDTH 677 0
DWIDTH 5 0
BBX 6 10 0 0
BITMAP
006500
045540
568881
564441
560000
564430
568860
560000
564441
568881
ENDCHAR
STARTCHAR Edieresis
ENCODING 203
SWIDTH 677 0
DWIDTH 5 0
BBX 6 11 0 0
BITMAP
033240
033340
033240
568881
564441
560000
564430
568860
560000
564441
568881
ENDCHAR
STARTCHAR Igrave
ENCODING 204
SWIDTH 262 0
DWIDTH 2 0
BBX 3 10 -1 0
BITMAP
2600
0630
0560
0560
0560
0560
0560
0560
0560
0560
ENDCHAR
STARTCHAR Iacute
ENCODING 205
SWIDTH 262 0
DWIDTH 2 0
BBX 3 10 0 0
BITMAP
0630
2600
5600
5600
5600
5600
5600
5600
5600
5600
ENDCHAR
STARTCHAR Icircumflex
ENCODING 206
SWIDTH 262 0
DWIDTH 2 0
BBX 4 10 -1 0
BITMAP
0750
4553
0560
0560
0560
0560
0560
0560
0560
0560
ENDCHAR
STARTCHAR Idieresis
ENCODING 207
SWIDTH 262 0
DWIDTH 2 0
BBX 4 11 -1 0
BITMAP
3334
3334
3334
0560
0560
0560
0560
0560
0560
0560
0560
ENDCHAR
STARTCHAR Eth
ENCODING 208
SWIDTH 856 0
DWIDTH 7 0
BBX 7 8 0 0
BITMAP
36788100
36444800
25103740
44410740
88820740
25103640
36444800
36788100
ENDCHAR
STARTCHAR Ntilde
ENCODING 209
SWIDTH 796 0
DWIDTH 6 0
BBX 6 10 0 0
BITMAP
015120
020430
561047
565047
567247
567647
564767
560667
560367
560057
ENDCHAR
STARTCHAR Ograve
ENCODING 210
SWIDTH 894 0
DWIDTH 7 0
BBX 7 10 0 0
BITMAP
00540000
00170000
02888300
17444620
56201660
65000470
65000470
56201560
17444620
02888300
ENDCHAR
STARTCHAR Oacute
ENCODING 211
SWIDTH 894 0
DWIDTH 7 0
BBX 7 10 0 0
BITMAP
00035000
00062000
02888300
17444620
56201660
65000470
65000470
56201560
17444620
02888300
ENDCHAR
STARTCHAR Ocircumflex
ENCODING 212
SWIDTH 894 0
DWIDTH 7 0
BBX 7 10 0 0
BITMAP
00362000
01737000
02888300
17444620
56201660
65000470
65000470
56201560
17444620
02888300
ENDCHAR
STARTCHAR Otilde
ENCODING 213
SWIDTH 894 0
DWIDTH 7 0
BBX 7 10 0 0
BITMAP
00432000
00224000
02888300
17444620
56201660
65000470
65000470
56201560
17444620
02888300
ENDCHAR
STARTCHAR Odieresis
ENCODING 214
SWIDTH 894 0
DWIDTH 7 0
BBX 7 11 0 0
BITMAP
00505100
03143400
01505100
02888300
17444620
56201660
65000470
65000470
56201560
17444620
02888300
ENDCHAR
STARTCHAR multiply
ENCODING 215
SWIDTH 370 0
DWIDTH 3 0
BBX 3 3 0 0
BITMAP
2320
3630
1320
ENDCHAR
STARTCHAR Oslash
ENCODING 216
SWIDTH 894 0
DWIDTH 7 0
BBX 7 8 0 0
BITMAP
02886720
17447610
56236550
65374470
65A22470
49501560
07044620
20488300
ENDCHAR
STARTCHAR Ugrave
ENCODING 217
SWIDTH 702 0
DWIDTH 6 0
BBX 6 10 0 0
BITMAP
044000
017100
560163
560163
560163
560163
560163
570263
364480
068830
ENDCHAR
STARTCHAR Uacute
ENCODING 218
SWIDTH 702 0
DWIDTH 6 0
BBX 6 10 0 0
BITMAP
000710
004400
560163
560163
560163
560163
560163
570263
364480
068830
ENDCHAR
STARTCHAR Ucircumflex
ENCODING 219
SWIDTH 702 0
DWIDTH 6 0
BBX 6 10 0 0
BITMAP
027300
064720
560163
560163
560163
560163
560163
570263
364480
068830
ENDCHAR
STARTCHAR Udieresis
ENCODING 220
SWIDTH 702 0
DWIDTH 6 0
BBX 6 11 0 0
BITMAP
052430
033340
052430
560163
560163
560163
560163
560163
570263
364480
068830
ENDCHAR
STARTCHAR Yacute
ENCODING 221
SWIDTH 769 0
DWIDTH 6 0
BBX 6 10 0 0
BITMAP
000630
002600
570067
274363
057560
027530
003400
004700
004700
004700
ENDCHAR
STARTCHAR Thorn
ENCODING 222
SWIDTH 743 0
DWIDTH 6 0
BBX 6 8 0 0
BITMAP
560000
564440
564444
564456
564456
564444
564440
560000
ENDCHAR
STARTCHAR germandbls
ENCODING 223
SWIDTH 424 0
DWIDTH 3 0
BBX 4 4 0 0
BITMAP
5980
6380
6351
6690
ENDCHAR
STARTCHAR agrave
ENCODING 224
SWIDTH 414 0
DWIDTH 3 0
BBX 4 6 0 0
BITMAP
0400
0000
0730
3740
4670
7581
ENDCHAR
STARTCHAR aacute
ENCODING 225
SWIDTH 414 0
DWIDTH 3 0
BBX 4 6 0 0
BITMAP
0220
0000
0730
3740
4670
7581
ENDCHAR
STARTCHAR acircumflex
ENCODING 226
SWIDTH 414 0
DWIDTH 3 0
BBX 4 6 0 0
BITMAP
0520
0000
0730
3740
4670
7581
ENDCHAR
STARTCHAR atilde
ENCODING 227
SWIDTH 414 0
DWIDTH 3 0
BBX 4 5 0 0
BITMAP
0220
0730
3740
4670
7581
ENDCHAR
STARTCHAR adieresis
ENCODING 228
SWIDTH 414 0
DWIDTH 3 0
BBX 4 6 0 0
BITMAP
0650
0000
0730
3740
4670
7581
ENDCHAR
STARTCHAR aring
ENCODING 229
SWIDTH 414 0
DWIDTH 3 0
BBX 4 6 0 0
BITMAP
0310
0300
0730
3740
4670
7581
ENDCHAR
STARTCHAR ae
ENCODING 230
SWIDTH 593 0
DWIDTH 5 0
BBX 5 4 0 0
BITMAP
048850
078410
368410
678850
ENDCHAR
STARTCHAR ccedilla
ENCODING 231
SWIDTH 446 0
DWIDTH 4 0
BBX 4 6 0 -2
BITMAP
2871
6200
6200
2871
0520
0320
ENDCHAR
STARTCHAR egrave
ENCODING 232
SWIDTH 363 0
DWIDTH 3 0
BBX 3 6 0 0
BITMAP
0400
0000
6960
6520
6520
6960
ENDCHAR
STARTCHAR eacute
ENCODING 233
SWIDTH 363 0
DWIDTH 3 0
BBX 3 6 0 0
BITMAP
0220
0000
6960
6520
6520
6960
ENDCHAR
STARTCHAR ecircumflex
ENCODING 234
SWIDTH 363 0
DWIDTH 3 0
BBX 3 6 0 0
BITMAP
0520
0000
6960
6520
6520
6960
ENDCHAR
STARTCHAR edieresis
ENCODING 235
SWIDTH 363 0
DWIDTH 3 0
BBX 3 6 0 0
BITMAP
0650
0000
6960
6520
6520
6960
ENDCHAR
STARTCHAR igrave
ENCODING 236
SWIDTH 176 0
DWIDTH 1 0
BBX 2 6 0 0
BITMAP
40
00
61
61
61
61
ENDCHAR
STARTCHAR iacute
ENCODING 237
SWIDTH 176 0
DWIDTH 1 0
BBX 2 6 0 0
BITMAP
22
00
61
61
61
61
ENDCHAR
STARTCHAR icircumflex
ENCODING 238
SWIDTH 176 0
DWIDTH 1 0
BBX 2 6 0 0
BITMAP
52
00
61
61
61
61
ENDCHAR
STARTCHAR idieresis
ENCODING 239
SWIDTH 176 0
DWIDTH 1 0
BBX 2 6 0 0
BITMAP
65
00
61
61
61
61
ENDCHAR
STARTCHAR eth
ENCODING 240
SWIDTH 455 0
DWIDTH 4 0
BBX 4 4 0 0
BITMAP
5980
2143
5243
5970
ENDCHAR
STARTCHAR ntilde
ENCODING 241
SWIDTH 444 0
DWIDTH 4 0
BBX 4 5 0 0
BITMAP
0220
6544
6844
6574
6274
ENDCHAR
STARTCHAR ograve
ENCODING 242
SWIDTH 494 0
DWIDTH 4 0
BBX 4 6 0 0
BITMAP
0400
0000
2882
6225
6225
2882
ENDCHAR
STARTCHAR oacute
ENCODING 243
SWIDTH 494 0
DWIDTH 4 0
BBX 4 6 0 0
BITMAP
0040
0000
2882
6225
6225
2882
ENDCHAR
STARTCHAR ocircumflex
ENCODING 244
SWIDTH 494 0
DWIDTH 4 0
BBX 4 6 0 0
BITMAP
0430
0000
2882
6225
6225
2882
ENDCHAR
STARTCHAR otilde
ENCODING 245
SWIDTH 494 0
DWIDTH 4 0
BBX 4 5 0 0
BITMAP
0130
2882
6225
6225
2882
ENDCHAR
STARTCHAR odieresis
ENCODING 246
SWIDTH 494 0
DWIDTH 4 0
BBX 4 6 0 0
BITMAP
0660
0000
2882
6225
6225
2882
ENDCHAR
STARTCHAR divide
ENCODING 247
SWIDTH 418 0
DWIDTH 3 0
BBX 3 4 0 0
BITMAP
0400
3540
3440
0500
ENDCHAR
STARTCHAR oslash
ENCODING 248
SWIDTH 494 0
DWIDTH 4 0
BBX 4 4 0 0
BITMAP
2854
6255
6525
4582
ENDCHAR
STARTCHAR ugrave
ENCODING 249
SWIDTH 400 0
DWIDTH 3 0
BBX 3 6 0 0
BITMAP
0400
0000
6170
6170
6270
3850
ENDCHAR
STARTCHAR uacute
ENCODING 250
SWIDTH 400 0
DWIDTH 3 0
BBX 3 6 0 0
BITMAP
0310
0000
6170
6170
6270
3850
ENDCHAR
STARTCHAR ucircumflex
ENCODING 251
SWIDTH 400 0
DWIDTH 3 0
BBX 3 6 0 0
BITMAP
1510
0000
6170
6170
6270
3850
ENDCHAR
STARTCHAR udieresis
ENCODING 252
SWIDTH 400 0
DWIDTH 3 0
BBX 3 6 0 0
BITMAP
1640
0000
6170
6170
6270
3850
ENDCHAR
STARTCHAR yacute
ENCODING 253
SWIDTH 422 0
DWIDTH 3 0
BBX 4 6 0 0
BITMAP
0320
0000
5471
2840
0510
0610
ENDCHAR
STARTCHAR thorn
ENCODING 254
SWIDTH 412 0
DWIDTH 3 0
BBX 3 4 0 0
BITMAP
6640
6660
6660
6640
ENDCHAR
STARTCHAR ydieresis
ENCODING 255
SWIDTH 422 0
DWIDTH 3 0
BBX 4 6 0 0
BITMAP
0650
0000
5471
2840
0510
0610
ENDCHAR
STARTCHAR Edotaccent
ENCODING 278
SWIDTH 677 0
DWIDTH 5 0
BBX 6 9 0 0
BITMAP
002500
568881
564441
560000
564430
568860
560000
564441
568881
ENDCHAR
STARTCHAR edotaccent
ENCODING 279
SWIDTH 363 0
DWIDTH 3 0
BBX 3 6 0 0
BITMAP
0800
0000
6960
6520
6520
6960
ENDCHAR
STARTCHAR dotlessi
ENCODING 305
SWIDTH 176 0
DWIDTH 1 0
BBX 2 4 0 0
BITMAP
61
61
61
61
ENDCHAR
STARTCHAR OE
ENCODING 338
SWIDTH 1221 0
DWIDTH 10 0
BBX 10 8 0 0
BITMAP
0298406884
1844203442
5720000000
7500003440
7500006881
5720000000
1844203442
0288406884
ENDCHAR
STARTCHAR oe
ENCODING 339
SWIDTH 637 0
DWIDTH 5 0
BBX 5 4 0 0
BITMAP
294680
610330
610330
294680
ENDCHAR
STARTCHAR Wcircumflex
ENCODING 372
SWIDTH 972 0
DWIDTH 8 0
BBX 8 10 0 0
BITMAP
00174000
00547200
75065074
47074163
47475470
26575460
07555540
07527420
04705600
04704800
ENDCHAR
STARTCHAR wcircumflex
ENCODING 373
SWIDTH 521 0
DWIDTH 4 0
BBX 4 6 0 0
BITMAP
0430
0000
7457
5787
4894
3765
ENDCHAR
STARTCHAR Ycircumflex
ENCODING 374
SWIDTH 769 0
DWIDTH 6 0
BBX 6 10 0 0
BITMAP
007500
045540
570067
274363
057560
027530
003400
004700
004700
004700
ENDCHAR
STARTCHAR ycircumflex
ENCODING 375
SWIDTH 422 0
DWIDTH 3 0
BBX 4 6 0 0
BITMAP
0520
0000
5471
2840
0510
0610
ENDCHAR
STARTCHAR Ydieresis
ENCODING 376
SWIDTH 769 0
DWIDTH 6 0
BBX 6 11 0 0
BITMAP
033240
033340
033240
570067
274363
057560
027530
003400
004700
004700
004700
ENDCHAR
STARTCHAR circumflex
ENCODING 710
SWIDTH 298 0
DWIDTH 2 0
BBX 2 1 0 5
BITMAP
34
ENDCHAR
STARTCHAR dotaccent
ENCODING 729
SWIDTH 212 0
DWIDTH 2 0
BBX 2 1 0 5
BITMAP
62
ENDCHAR
STARTCHAR ring
ENCODING 730
SWIDTH 212 0
DWIDTH 2 0
BBX 2 2 0 4
BITMAP
21
21
ENDCHAR
STARTCHAR tilde
ENCODING 732
SWIDTH 329 0
DWIDTH 3 0
BBX 2 1 0 4
BITMAP
13
ENDCHAR
STARTCHAR gravecomb
ENCODING 768
SWIDTH 0 0
DWIDTH 0 0
BBX 1 1 0 5
BITMAP
40
ENDCHAR
STARTCHAR acutecomb
ENCODING 769
SWIDTH 0 0
DWIDTH 0 0
BBX 1 1 0 5
BITMAP
40
ENDCHAR
STARTCHAR uni0302
ENCODING 770
SWIDTH 0 0
DWIDTH 0 0
BBX 2 1 0 5
BITMAP
34
ENDCHAR
STARTCHAR tildecomb
ENCODING 771
SWIDTH 0 0
DWIDTH 0 0
BBX 2 1 0 4
BITMAP
13
ENDCHAR
STARTCHAR uni0307
ENCODING 775
SWIDTH 0 0
DWIDTH 0 0
BBX 2 1 0 5
BITMAP
62
ENDCHAR
STARTCHAR uni0308
ENCODING 776
SWIDTH 0 0
DWIDTH 0 0
BBX 2 1 0 5
BITMAP
66
ENDCHAR
STARTCHAR uni030A
ENCODING 778
SWIDTH 0 0
DWIDTH 0 0
BBX 2 2 0 4
BITMAP
21
21
ENDCHAR
STARTCHAR uni0327
ENCODING 807
SWIDTH 0 0
DWIDTH 0 0
BBX 2 2 0 -2
BITMAP
34
23
ENDCHAR
STARTCHAR Wgrave
ENCODING 7808
SWIDTH 972 0
DWIDTH 8 0
BBX 8 10 0 0
BITMAP
00072000
00035000
75065074
47074163
47475470
26575460
07555540
07527420
04705600
04704800
ENDCHAR
STARTCHAR wgrave
ENCODING 7809
SWIDTH 521 0
DWIDTH 4 0
BBX 4 6 0 0
BITMAP
0130
0000
7457
5787
4894
3765
ENDCHAR
STARTCHAR Wacute
ENCODING 7810
SWIDTH 972 0
DWIDTH 8 0
BBX 8 10 0 0
BITMAP
00045000
00071000
75065074
47074163
47475470
26575460
07555540
07527420
04705600
04704800
ENDCHAR
STARTCHAR wacute
ENCODING 7811
SWIDTH 521 0
DWIDTH 4 0
BBX 4 6 0 0
BITMAP
0130
0000
7457
5787
4894
3765
ENDCHAR
STARTCHAR Wdieresis
ENCODING 7812
SWIDTH 972 0
DWIDTH 8 0
BBX 8 11 0 0
BITMAP
00423300
00333400
00423300
75065074
47074163
47475470
26575460
07555540
07527420
04705600
04704800
ENDCHAR
STARTCHAR wdieresis
ENCODING 7813
SWIDTH 521 0
DWIDTH 4 0
BBX 4 6 0 0
BITMAP
0660
0000
7457
5787
4894
3765
ENDCHAR
STARTCHAR uni1E9E
ENCODING 7838
SWIDTH 784 0
DWIDTH 6 0
BBX 6 8 0 0
BITMAP
568883
564441
560471
561752
563566
560047
562447
565893
ENDCHAR
STARTCHAR Ygrave
ENCODING 7922
SWIDTH 769 0
DWIDTH 6 0
BBX 6 10 0 0
BITMAP
005300
002600
570067
274363
057560
027530
003400
004700
004700
004700
ENDCHAR
STARTCHAR ygrave
ENCODING 7923
SWIDTH 422 0
DWIDTH 3 0
BBX 4 6 0 0
BITMAP
0400
0000
5471
2840
0510
0610
ENDCHAR
STARTCHAR endash
ENCODING 8211
SWIDTH 507 0
DWIDTH 4 0
BBX 4 2 0 1
BITMAP
3553
3553
ENDCHAR
STARTCHAR emdash
ENCODING 8212
SWIDTH 552 0
DWIDTH 4 0
BBX 4 2 0 1
BITMAP
3555
3555
ENDCHAR
STARTCHAR quoteleft
ENCODING 8216
SWIDTH 146 0
DWIDTH 1 0
BBX 1 2 0 2
BITMAP
50
20
ENDCHAR
STARTCHAR quoteright
ENCODING 8217
SWIDTH 146 0
DWIDTH 1 0
BBX 1 2 0 2
BITMAP
60
10
ENDCHAR
STARTCHAR quotesinglbase
ENCODING 8218
SWIDTH 146 0
DWIDTH 1 0
BBX 1 2 0 -2
BITMAP
50
10
ENDCHAR
STARTCHAR quotedblleft
ENCODING 8220
SWIDTH 297 0
DWIDTH 2 0
BBX 3 2 0 2
BITMAP
5410
2110
ENDCHAR
STARTCHAR quotedblright
ENCODING 8221
SWIDTH 297 0
DWIDTH 2 0
BBX 3 2 0 2
BITMAP
6330
1010
ENDCHAR
STARTCHAR quotedblbase
ENCODING 8222
SWIDTH 297 0
DWIDTH 2 0
BBX 3 2 0 -2
BITMAP
5320
1010
ENDCHAR
STARTCHAR bullet
ENCODING 8226
SWIDTH 302 0
DWIDTH 2 0
BBX 2 3 0 1
BITMAP
25
33
25
ENDCHAR
STARTCHAR ellipsis
ENCODING 8230
SWIDTH 528 0
DWIDTH 4 0
BBX 4 1 0 0
BITMAP
5436
ENDCHAR
STARTCHAR guilsinglleft
ENCODING 8249
SWIDTH 178 0
DWIDTH 1 0
BBX 2 2 0 1
BITMAP
20
41
ENDCHAR
STARTCHAR guilsinglright
ENCODING 8250
SWIDTH 178 0
DWIDTH 1 0
BBX 2 2 0 1
BITMAP
20
41
ENDCHAR
STARTCHAR fraction
ENCODING 8260
SWIDTH 362 0
DWIDTH 3 0
BBX 3 4 0 0
BITMAP
0350
0620
3500
5300
ENDCHAR
STARTCHAR uni2074
ENCODING 8308
SWIDTH 204 0
DWIDTH 2 0
BBX 2 1 0 2
BITMAP
74
ENDCHAR
STARTCHAR Euro
ENCODING 8364
SWIDTH 462 0
DWIDTH 4 0
BBX 4 4 0 0
BITMAP
2881
4300
4300
2881
ENDCHAR
STARTCHAR trademark
ENCODING 8482
SWIDTH 461 0
DWIDTH 4 0
BBX 4 2 0 2
BITMAP
C854
3444
ENDCHAR
STARTCHAR minus
ENCODING 8722
SWIDTH 420 0
DWIDTH 3 0
BBX 4 2 0 0
BITMAP
AFF1
2330
ENDCHAR
STARTCHAR uni2215
ENCODING 8725
SWIDTH 278 0
DWIDTH 2 0
BBX 2 3 0 0
BITMAP
07
35
53
ENDCHAR
STARTCHAR .notdef
ENCODING -1
SWIDTH 500 0
DWIDTH 4 0
BBX 4 10 0 -2
BITMAP
5665
6006
6006
6006
6006
6006
6006
6006
6006
5665
ENDCHAR
STARTCHAR NULL
ENCODING -1
SWIDTH 600 0
DWIDTH 5 0
BBX 1 1 0 0
BITMAP
00
ENDCHAR
STARTCHAR acutecomb.case
ENCODING -1
SWIDTH 0 0
DWIDTH 0 0
BBX 3 2 0 8
BITMAP
0710
4400
ENDCHAR
STARTCHAR ampersand.case
ENCODING -1
SWIDTH 797 0
DWIDTH 6 0
BBX 6 8 0 0
BITMAP
039810
074540
075740
058520
467632
664756
654771
178675
ENDCHAR
STARTCHAR asciicircum.case
ENCODING -1
SWIDTH 540 0
DWIDTH 4 0
BBX 4 4 0 4
BITMAP
0230
0561
2644
5317
ENDCHAR
STARTCHAR asciitilde.case
ENCODING -1
SWIDTH 640 0
DWIDTH 5 0
BBX 5 3 0 3
BITMAP
353020
446560
345840
ENDCHAR
STARTCHAR asterisk.case
ENCODING -1
SWIDTH 482 0
DWIDTH 4 0
BBX 4 4 0 4
BITMAP
1441
3242
1450
0220
ENDCHAR
STARTCHAR at.case
ENCODING -1
SWIDTH 915 0
DWIDTH 7 0
BBX 7 8 0 0
BITMAP
01888400
07100530
44245270
43605270
43705260
44243140
08200320
02888200
ENDCHAR
STARTCHAR backslash.case
ENCODING -1
SWIDTH 504 0
DWIDTH 4 0
BBX 4 9 0 -1
BITMAP
7500
4700
3620
0740
0560
0470
0263
0074
0047
ENDCHAR
STARTCHAR bar.case
ENCODING -1
SWIDTH 262 0
DWIDTH 2 0
BBX 2 9 0 -1
BITMAP
56
56
56
56
56
56
56
56
56
ENDCHAR
STARTCHAR braceleft.case
ENCODING -1
SWIDTH 504 0
DWIDTH 4 0
BBX 4 10 0 -1
BITMAP
0343
0563
0563
0560
2660
5660
0560
0560
0565
0343
ENDCHAR
STARTCHAR braceright.case
ENCODING -1
SWIDTH 506 0
DWIDTH 4 0
BBX 4 10 0 -3
BITMAP
2440
5660
0560
0560
0565
0563
0560
2560
2560
2440
ENDCHAR
STARTCHAR bracketleft.case
ENCODING -1
SWIDTH 453 0
DWIDTH 4 0
BBX 4 10 0 -1
BITMAP
3441
5641
5641
5600
5600
5600
5600
5600
5682
3441
ENDCHAR
STARTCHAR bracketright.case
ENCODING -1
SWIDTH 453 0
DWIDTH 4 0
BBX 4 10 0 -3
BITMAP
2342
5773
0173
0173
0173
0173
0173
2473
2473
2342
ENDCHAR
STARTCHAR brokenbar.case
ENCODING -1
SWIDTH 262 0
DWIDTH 2 0
BBX 2 9 0 0
BITMAP
56
56
56
56
00
56
56
56
56
ENDCHAR
STARTCHAR bullet.case
ENCODING -1
SWIDTH 503 0
DWIDTH 4 0
BBX 4 5 0 2
BITMAP
0550
4554
4444
4554
0550
ENDCHAR
STARTCHAR uni0327.case
ENCODING -1
SWIDTH 0 0
DWIDTH 0 0
BBX 3 3 0 -3
BITMAP
0100
2610
2500
ENDCHAR
STARTCHAR cent.case
ENCODING -1
SWIDTH 577 0
DWIDTH 5 0
BBX 5 11 0 -1
BITMAP
001000
007000
002000
025510
264500
470000
470000
255510
035400
007000
002000
ENDCHAR
STARTCHAR uni0302.case
ENCODING -1
SWIDTH 0 0
DWIDTH 0 0
BBX 4 2 0 8
BITMAP
0660
3644
ENDCHAR
STARTCHAR colon.case
ENCODING -1
SWIDTH 262 0
DWIDTH 2 0
BBX 2 5 0 0
BITMAP
56
34
00
34
56
ENDCHAR
STARTCHAR comma.case
ENCODING -1
SWIDTH 338 0
DWIDTH 3 0
BBX 3 3 0 -1
BITMAP
1320
3710
4700
ENDCHAR
STARTCHAR copyright.case
ENCODING -1
SWIDTH 895 0
DWIDTH 7 0
BBX 7 8 0 0
BITMAP
02888300
18100720
44144260
61600080
61700080
44244260
17100720
02889300
ENDCHAR
STARTCHAR currency.case
ENCODING -1
SWIDTH 676 0
DWIDTH 5 0
BBX 6 6 0 0
BITMAP
150230
444460
054620
154630
444461
140130
ENDCHAR
STARTCHAR degree.case
ENCODING -1
SWIDTH 413 0
DWIDTH 3 0
BBX 3 4 0 4
BITMAP
3A60
6180
4560
1430
ENDCHAR
STARTCHAR uni0308.case
ENCODING -1
SWIDTH 0 0
DWIDTH 0 0
BBX 5 3 0 8
BITMAP
241500
333310
241500
ENDCHAR
STARTCHAR divide.case
ENCODING -1
SWIDTH 618 0
DWIDTH 5 0
BBX 5 6 0 1
BITMAP
005000
005000
344420
599950
005000
005000
ENDCHAR
STARTCHAR uni2215.case
ENCODING -1
SWIDTH 483 0
DWIDTH 4 0
BBX 4 8 0 0
BITMAP
0084
0263
0480
0650
0740
3620
4700
7400
ENDCHAR
STARTCHAR dollar.case
ENCODING -1
SWIDTH 660 0
DWIDTH 5 0
BBX 5 9 0 -1
BITMAP
017100
267540
577450
577100
276730
006670
367470
367540
027200
ENDCHAR
STARTCHAR eight.case
ENCODING -1
SWIDTH 561 0
DWIDTH 4 0
BBX 5 8 0 0
BITMAP
178500
555710
752630
497510
369800
742630
555610
188400
ENDCHAR
STARTCHAR ellipsis.case
ENCODING -1
SWIDTH 766 0
DWIDTH 6 0
BBX 6 2 0 0
BITMAP
343424
564747
ENDCHAR
STARTCHAR emdash.case
ENCODING -1
SWIDTH 790 0
DWIDTH 6 0
BBX 6 2 0 3
BITMAP
344444
599998
ENDCHAR
STARTCHAR endash.case
ENCODING -1
SWIDTH 721 0
DWIDTH 6 0
BBX 6 2 0 3
BITMAP
344442
599993
ENDCHAR
STARTCHAR equal.case
ENCODING -1
SWIDTH 618 0
DWIDTH 5 0
BBX 5 5 0 1
BITMAP
244420
244420
000000
244420
244420
ENDCHAR
STARTCHAR Euro.case
ENCODING -1
SWIDTH 767 0
DWIDTH 6 0
BBX 6 8 0 0
BITMAP
017883
065445
174010
444400
788800
174010
066455
017883
ENDCHAR
STARTCHAR exclam.case
ENCODING -1
SWIDTH 262 0
DWIDTH 2 0
BBX 2 8 0 0
BITMAP
56
56
56
56
56
45
34
56
ENDCHAR
STARTCHAR exclamdown.case
ENCODING -1
SWIDTH 262 0
DWIDTH 2 0
BBX 2 8 0 -3
BITMAP
56
34
45
56
56
56
56
56
ENDCHAR
STARTCHAR five.case
ENCODING -1
SWIDTH 558 0
DWIDTH 4 0
BBX 5 8 0 0
BITMAP
588800
244400
460000
464200
468700
322620
555710
188500
ENDCHAR
STARTCHAR four.case
ENCODING -1
SWIDTH 585 0
DWIDTH 5 0
BBX 5 8 0 0
BITMAP
017400
047100
075000
263000
475600
345620
345620
004600
ENDCHAR
STARTCHAR uni2074.case
ENCODING -1
SWIDTH 312 0
DWIDTH 3 0
BBX 3 4 0 4
BITMAP
2600
3300
3540
0330
ENDCHAR
STARTCHAR fraction.case
ENCODING -1
SWIDTH 655 0
DWIDTH 5 0
BBX 5 8 0 0
BITMAP
000350
000620
002600
005300
017000
044000
070000
440000
ENDCHAR
STARTCHAR gravecomb.case
ENCODING -1
SWIDTH 0 0
DWIDTH 0 0
BBX 3 2 0 8
BITMAP
4500
0710
ENDCHAR
STARTCHAR greater.case
ENCODING -1
SWIDTH 677 0
DWIDTH 5 0
BBX 5 6 0 0
BITMAP
300000
473000
157620
036640
476200
430000
ENDCHAR
STARTCHAR guillemotleft.case
ENCODING -1
SWIDTH 666 0
DWIDTH 5 0
BBX 5 5 0 1
BITMAP
001010
162360
461650
471660
042150
ENDCHAR
STARTCHAR guillemotright.case
ENCODING -1
SWIDTH 666 0
DWIDTH 5 0
BBX 5 5 0 1
BITMAP
100100
450630
362560
472660
430510
ENDCHAR
STARTCHAR guilsinglleft.case
ENCODING -1
SWIDTH 338 0
DWIDTH 3 0
BBX 3 5 0 1
BITMAP
0010
1620
4610
4710
0420
ENDCHAR
STARTCHAR guilsinglright.case
ENCODING -1
SWIDTH 338 0
DWIDTH 3 0
BBX 3 5 0 1
BITMAP
1000
4500
3620
4720
4300
ENDCHAR
STARTCHAR hyphen.case
ENCODING -1
SWIDTH 445 0
DWIDTH 4 0
BBX 4 2 0 3
BITMAP
3441
5991
ENDCHAR
STARTCHAR less.case
ENCODING -1
SWIDTH 677 0
DWIDTH 5 0
BBX 6 6 0 0
BITMAP
000151
004770
266400
047730
001571
000030
ENDCHAR
STARTCHAR logicalnot.case
ENCODING -1
SWIDTH 618 0
DWIDTH 5 0
BBX 5 4 0 1
BITMAP
244420
588850
000420
000740
ENDCHAR
STARTCHAR uni00B5.case
ENCODING -1
SWIDTH 792 0
DWIDTH 6 0
BBX 7 10 0 -2
BITMAP
56016300
56016300
56016300
56016300
56016300
56026300
56548510
56884710
56000000
56000000
ENDCHAR
STARTCHAR minus.case
ENCODING -1
SWIDTH 618 0
DWIDTH 5 0
BBX 5 2 0 3
BITMAP
344420
599950
ENDCHAR
STARTCHAR multiply.case
ENCODING -1
SWIDTH 580 0
DWIDTH 5 0
BBX 5 5 0 1
BITMAP
054640
056730
067640
373620
010000
ENDCHAR
STARTCHAR nine.case
ENCODING -1
SWIDTH 558 0
DWIDTH 4 0
BBX 5 8 0 -2
BITMAP
188400
555710
651630
486740
043740
321630
565710
188400
ENDCHAR
STARTCHAR numbersign.case
ENCODING -1
SWIDTH 776 0
DWIDTH 6 0
BBX 6 8 0 0
BITMAP
047074
157465
157444
165554
355572
344572
042650
262740
ENDCHAR
STARTCHAR one.case
ENCODING -1
SWIDTH 378 0
DWIDTH 3 0
BBX 3 8 0 0
BITMAP
8650
4650
0650
0650
0650
0650
0650
0650
ENDCHAR
STARTCHAR onehalf.case
ENCODING -1
SWIDTH 735 0
DWIDTH 6 0
BBX 6 8 0 0
BITMAP
561070
061440
061710
023500
006493
026063
053252
170242
ENDCHAR
STARTCHAR onequarter.case
ENCODING -1
SWIDTH 722 0
DWIDTH 6 0
BBX 6 8 0 0
BITMAP
561070
061440
061710
023500
006370
026330
053354
170033
ENDCHAR
STARTCHAR uni00B9.case
ENCODING -1
SWIDTH 306 0
DWIDTH 2 0
BBX 3 4 0 4
BITMAP
5610
0610
0610
0200
ENDCHAR
STARTCHAR ordfeminine.case
ENCODING -1
SWIDTH 456 0
DWIDTH 4 0
BBX 4 4 0 4
BITMAP
0640
1950
4670
2121
ENDCHAR
STARTCHAR ordmasculine.case
ENCODING -1
SWIDTH 489 0
DWIDTH 4 0
BBX 4 4 0 4
BITMAP
2991
4344
4443
0440
ENDCHAR
STARTCHAR paragraph.case
ENCODING -1
SWIDTH 893 0
DWIDTH 7 0
BBX 7 8 0 0
BITMAP
29999970
65444430
65026360
44456370
05456370
00026370
00026370
00026370
ENDCHAR
STARTCHAR parenleft.case
ENCODING -1
SWIDTH 290 0
DWIDTH 2 0
BBX 3 9 0 -1
BITMAP
0840
3710
4700
6500
7400
6500
4700
3710
0840
ENDCHAR
STARTCHAR parenright.case
ENCODING -1
SWIDTH 290 0
DWIDTH 2 0
BBX 4 9 -1 -2
BITMAP
1830
0740
0480
0480
0371
0480
0480
0740
1830
ENDCHAR
STARTCHAR percent.case
ENCODING -1
SWIDTH 827 0
DWIDTH 7 0
BBX 7 8 0 0
BITMAP
39604720
61817600
45647200
14375000
01754400
05754430
17544440
57118810
ENDCHAR
STARTCHAR period.case
ENCODING -1
SWIDTH 262 0
DWIDTH 2 0
BBX 2 2 0 0
BITMAP
34
56
ENDCHAR
STARTCHAR periodcentered.case
ENCODING -1
SWIDTH 262 0
DWIDTH 2 0
BBX 2 2 0 3
BITMAP
34
56
ENDCHAR
STARTCHAR plus.case
ENCODING -1
SWIDTH 616 0
DWIDTH 5 0
BBX 5 6 0 1
BITMAP
011000
036200
356420
586750
036200
025100
ENDCHAR
STARTCHAR plusminus.case
ENCODING -1
SWIDTH 618 0
DWIDTH 5 0
BBX 5 7 0 0
BITMAP
011000
036200
356420
586750
036200
379620
599950
ENDCHAR
STARTCHAR question.case
ENCODING -1
SWIDTH 598 0
DWIDTH 5 0
BBX 5 8 0 0
BITMAP
088600
465630
230740
006620
027400
036000
024000
047000
ENDCHAR
STARTCHAR questiondown.case
ENCODING -1
SWIDTH 598 0
DWIDTH 5 0
BBX 5 8 0 -3
BITMAP
046100
024000
036100
058000
373000
470320
465620
079600
ENDCHAR
STARTCHAR quotedbl.case
ENCODING -1
SWIDTH 464 0
DWIDTH 4 0
BBX 4 3 0 5
BITMAP
7474
7474
4242
ENDCHAR
STARTCHAR quotedblbase.case
ENCODING -1
SWIDTH 464 0
DWIDTH 4 0
BBX 4 3 0 0
BITMAP
7474
6464
2222
ENDCHAR
STARTCHAR quotedblleft.case
ENCODING -1
SWIDTH 464 0
DWIDTH 4 0
BBX 4 3 0 3
BITMAP
4040
7272
7474
ENDCHAR
STARTCHAR quotedblright.case
ENCODING -1
SWIDTH 464 0
DWIDTH 4 0
BBX 4 3 0 5
BITMAP
7474
6464
2222
ENDCHAR
STARTCHAR quoteleft.case
ENCODING -1
SWIDTH 212 0
DWIDTH 2 0
BBX 2 3 0 3
BITMAP
40
72
74
ENDCHAR
STARTCHAR quoteright.case
ENCODING -1
SWIDTH 212 0
DWIDTH 2 0
BBX 2 3 0 5
BITMAP
74
64
22
ENDCHAR
STARTCHAR quotesinglbase.case
ENCODING -1
SWIDTH 212 0
DWIDTH 2 0
BBX 2 3 0 0
BITMAP
74
64
22
ENDCHAR
STARTCHAR quotesingle.case
ENCODING -1
SWIDTH 212 0
DWIDTH 2 0
BBX 2 3 0 5
BITMAP
74
74
42
ENDCHAR
STARTCHAR registered.case
ENCODING -1
SWIDTH 895 0
DWIDTH 7 0
BBX 7 8 0 0
BITMAP
02888300
18100720
44454260
61657080
61685080
44627260
17101720
02889300
ENDCHAR
STARTCHAR uni030A.case
ENCODING -1
SWIDTH 0 0
DWIDTH 0 0
BBX 2 3 0 8
BITMAP
25
43
25
ENDCHAR
STARTCHAR section.case
ENCODING -1
SWIDTH 645 0
DWIDTH 5 0
BBX 5 11 0 -2
BITMAP
034410
278750
465200
175630
366750
481650
378510
046840
244750
454440
044400
ENDCHAR
STARTCHAR semicolon.case
ENCODING -1
SWIDTH 338 0
DWIDTH 3 0
BBX 3 6 0 -1
BITMAP
0740
0420
0000
1320
3710
4700
ENDCHAR
STARTCHAR seven.case
ENCODING -1
SWIDTH 505 0
DWIDTH 4 0
BBX 4 8 0 0
BITMAP
7997
3443
0074
0174
0371
0470
0650
0740
ENDCHAR
STARTCHAR six.case
ENCODING -1
SWIDTH 558 0
DWIDTH 4 0
BBX 5 8 0 0
BITMAP
178400
555710
741310
744200
759700
742620
555710
178500
ENDCHAR
STARTCHAR slash.case
ENCODING -1
SWIDTH 504 0
DWIDTH 4 0
BBX 4 9 0 -1
BITMAP
0047
0074
0263
0470
0660
0740
3620
4700
7500
ENDCHAR
STARTCHAR uni00AD.case
ENCODING -1
SWIDTH 445 0
DWIDTH 4 0
BBX 4 2 0 3
BITMAP
3441
5991
ENDCHAR
STARTCHAR sterling.case
ENCODING -1
SWIDTH 618 0
DWIDTH 5 0
BBX 5 8 0 0
BITMAP
188710
564640
570210
444200
788500
351000
444430
888860
ENDCHAR
STARTCHAR three.case
ENCODING -1
SWIDTH 558 0
DWIDTH 4 0
BBX 5 8 0 0
BITMAP
189400
555710
322630
003510
007700
322620
555710
188500
ENDCHAR
STARTCHAR threequarters.case
ENCODING -1
SWIDTH 722 0
DWIDTH 6 0
BBX 6 8 0 0
BITMAP
391070
041440
133710
253500
006370
026330
053354
170033
ENDCHAR
STARTCHAR uni00B3.case
ENCODING -1
SWIDTH 332 0
DWIDTH 3 0
BBX 3 4 0 4
BITMAP
3910
0410
1330
2500
ENDCHAR
STARTCHAR tildecomb.case
ENCODING -1
SWIDTH 0 0
DWIDTH 0 0
BBX 4 2 0 8
BITMAP
2402
2151
ENDCHAR
STARTCHAR trademark.case
ENCODING -1
SWIDTH 850 0
DWIDTH 7 0
BBX 7 4 0 3
BITMAP
8C683740
07088940
07084540
07080440
ENDCHAR
STARTCHAR two.case
ENCODING -1
SWIDTH 558 0
DWIDTH 4 0
BBX 5 8 0 0
BITMAP
188500
555710
322630
006710
048400
276000
244400
588800
ENDCHAR
STARTCHAR uni00B2.case
ENCODING -1
SWIDTH 339 0
DWIDTH 3 0
BBX 3 4 0 4
BITMAP
3920
1620
3510
2410
ENDCHAR
STARTCHAR underscore.case
ENCODING -1
SWIDTH 667 0
DWIDTH 5 0
BBX 5 2 0 0
BITMAP
244440
588880
ENDCHAR
STARTCHAR yen.case
ENCODING -1
SWIDTH 769 0
DWIDTH 6 0
BBX 6 8 0 0
BITMAP
570067
374364
067570
036640
004400
035740
035740
004700
ENDCHAR
STARTCHAR zero.case
ENCODING -1
SWIDTH 558 0
DWIDTH 4 0
BBX 5 8 0 0
BITMAP
178400
555710
742630
741730
741730
742630
555710
178400
ENDCHAR
ENDFONT
